#Comment line ignore any data following # character 
#Hierarchical Translation and Rotation (.htr) file 
[Header]	
#Header keywords are followed by a single value 
FileType HTR		#Single word string
DataType HTRS		#Translation followed by rotation and scale data
FileVersion 1		#integer
NumSegments 23		#integer
NumFrames 4		#integer
DataFrameRate 30		#integer, data frame rate in this file
EulerRotationOrder ZYX
CalibrationUnits mm
RotationUnits Degrees
GlobalAxisofGravity Y
BoneLengthAxis Y
ScaleFactor 1.00
[SegmentNames&Hierarchy]
#CHILD	PARENT
MASTER GLOBAL
weapon MASTER
arm_lock_bottom_part1 weapon
arm_lock_bottom_part2 weapon
arm_lock_bottom_part3 weapon
arm_lock_bottom_part4 weapon
arm_lock_top_part1 weapon
arm_lock_top_part2 weapon
arm_lock_top_part3 weapon
front_lower_left_part1 weapon
front_lower_right_part1 weapon
front_top_left_part weapon
front_top_right_part1 weapon
scope_part1 weapon
scope_part2 weapon
front_lower_left_part2 front_lower_left_part1
front_lower_left_part3 front_lower_left_part2
front_lower_right_part2 front_lower_right_part1
front_lower_right_part3 front_lower_right_part2
front_top_left_part2 front_top_left_part
front_top_left_part3 front_top_left_part2
front_top_right_part2 front_top_right_part1
front_top_right_part3 front_top_right_part2
[BasePosition]
#SegmentName Tx, Ty, Tz, Rx, Ry, Rz, BoneLength
MASTER 0.000000 0.000000 0.000000 -90.000000 0.000000 0.000000 10.000000 
weapon 0.000000 0.000000 0.000000 0.000000 0.000000 0.000000 10.000000 
arm_lock_bottom_part1 0.000000 0.000000 0.000000 0.000000 0.000000 0.000000 10.000000 
arm_lock_bottom_part2 0.000000 0.000000 0.000000 0.000000 0.000000 0.000000 10.000000 
arm_lock_bottom_part3 0.000000 0.000000 0.000000 0.000000 0.000000 0.000000 10.000000 
arm_lock_bottom_part4 0.000000 0.000000 0.000000 0.000000 0.000000 0.000000 10.000000 
arm_lock_top_part1 0.000000 0.000000 0.000000 0.000000 0.000000 0.000000 10.000000 
arm_lock_top_part2 0.000000 0.000000 0.000000 0.000000 0.000000 0.000000 10.000000 
arm_lock_top_part3 0.000000 0.000000 0.000000 0.000000 0.000000 0.000000 10.000000 
front_lower_left_part1 0.000000 0.000000 0.000000 0.000000 0.000000 0.000000 10.000000 
front_lower_right_part1 0.000000 0.000000 0.000000 0.000000 0.000000 0.000000 10.000000 
front_top_left_part 0.000000 0.000000 0.000000 0.000000 0.000000 0.000000 10.000000 
front_top_right_part1 0.000000 0.000000 0.000000 0.000000 0.000000 0.000000 10.000000 
scope_part1 0.000000 0.000000 0.000000 0.000000 0.000000 0.000000 10.000000 
scope_part2 0.000000 0.000000 0.000000 0.000000 0.000000 0.000000 10.000000 
front_lower_left_part2 0.000000 0.000000 0.000000 0.000000 0.000000 0.000000 10.000000 
front_lower_left_part3 0.000000 0.000000 0.000000 0.000000 0.000000 0.000000 10.000000 
front_lower_right_part2 0.000000 0.000000 0.000000 0.000000 0.000000 0.000000 10.000000 
front_lower_right_part3 0.000000 0.000000 0.000000 0.000000 0.000000 0.000000 10.000000 
front_top_left_part2 0.000000 0.000000 0.000000 0.000000 0.000000 0.000000 10.000000 
front_top_left_part3 0.000000 0.000000 0.000000 0.000000 0.000000 0.000000 10.000000 
front_top_right_part2 0.000000 0.000000 0.000000 0.000000 0.000000 0.000000 10.000000 
front_top_right_part3 0.000000 0.000000 0.000000 0.000000 0.000000 0.000000 10.000000 
#Beginning of Data. Separated by tabs
#Fr	Tx	Ty	Tz	Rx	Ry	Rz	SF
[MASTER]
57 0.000000 -0.000019 0.000002 0.002458 -0.000000 0.000000 0.000019
58 0.000000 -0.000019 0.000002 0.002458 -0.000000 0.000000 0.000019
59 0.000000 -0.000019 0.000002 0.002458 -0.000000 0.000000 0.000019
60 0.000000 -0.000019 0.000002 0.002458 -0.000000 0.000000 0.000019
[weapon]
57 10.182457 -168.977844 -13.084106 -0.002473 -0.000000 -0.000020 169.789246
58 10.182457 -168.977844 -13.084106 -0.002473 -0.000000 -0.000020 169.789246
59 10.182457 -168.977844 -13.084106 -0.002473 -0.000000 -0.000020 169.789246
60 10.182457 -168.977844 -13.084106 -0.002473 -0.000000 -0.000020 169.789246
[arm_lock_bottom_part1]
57 -48.820000 98.566208 -83.498993 179.999985 0.000004 9.388626 138.096970
58 -48.820000 98.566208 -83.498993 179.999985 0.000004 9.388626 138.096970
59 -48.820000 98.566208 -83.498993 179.999985 0.000004 9.388626 138.096970
60 -48.820000 98.566208 -83.498993 179.999985 0.000004 9.388626 138.096970
[arm_lock_bottom_part2]
57 -49.022766 58.782005 -78.526535 -179.999985 -0.000001 6.576765 109.658440
58 -49.022766 58.782005 -78.526535 -179.999985 -0.000001 6.576765 109.658440
59 -49.022766 58.782005 -78.526535 -179.999985 -0.000001 6.576765 109.658440
60 -49.022766 58.782005 -78.526535 -179.999985 -0.000001 6.576765 109.658440
[arm_lock_bottom_part3]
57 -51.266422 -16.798210 -66.920395 -179.999985 -0.000001 4.326176 85.957924
58 -51.266422 -16.798210 -66.920395 -179.999985 -0.000001 4.326176 85.957924
59 -51.266422 -16.798210 -66.920395 -179.999985 -0.000001 4.326176 85.957924
60 -51.266422 -16.798210 -66.920395 -179.999985 -0.000001 4.326176 85.957924
[arm_lock_bottom_part4]
57 -40.078102 -93.503113 -59.330063 -179.999985 -0.000000 1.322129 117.767326
58 -40.078102 -93.503113 -59.330063 -179.999985 -0.000000 1.322129 117.767326
59 -40.078102 -93.503113 -59.330063 -179.999985 -0.000000 1.322129 117.767326
60 -40.078102 -93.503113 -59.330063 -179.999985 -0.000000 1.322129 117.767326
[arm_lock_top_part1]
57 -47.532558 61.554489 78.379364 0.000000 -0.000000 -9.999999 110.415680
58 -47.532558 61.554489 78.379364 0.000000 -0.000000 -9.999999 110.415680
59 -47.532558 61.554489 78.379364 0.000000 -0.000000 -9.999999 110.415680
60 -47.532558 61.554489 78.379364 0.000000 -0.000000 -9.999999 110.415680
[arm_lock_top_part2]
57 -45.622673 13.709908 63.393555 0.000000 -0.000000 -7.722126 79.297745
58 -45.622673 13.709908 63.393555 0.000000 -0.000000 -7.722126 79.297745
59 -45.622673 13.709908 63.393555 0.000000 -0.000000 -7.722126 79.297745
60 -45.622673 13.709908 63.393555 0.000000 -0.000000 -7.722126 79.297745
[arm_lock_top_part3]
57 -43.788544 -73.747208 72.061615 0.000000 0.000000 -4.533067 112.022163
58 -43.788544 -73.747208 72.061615 0.000000 0.000000 -4.533067 112.022163
59 -43.788544 -73.747208 72.061615 0.000000 0.000000 -4.533067 112.022163
60 -43.788544 -73.747208 72.061615 0.000000 0.000000 -4.533067 112.022163
[front_lower_left_part1]
57 -46.798553 475.070984 -43.538895 0.000000 0.000003 -0.000000 479.351837
58 -46.798553 475.070984 -43.538895 0.000000 0.000003 -0.000000 479.351837
59 -46.798553 475.070984 -43.538895 0.000000 0.000003 -0.000000 479.351837
60 -46.798553 475.070984 -43.538895 0.000000 0.000003 -0.000000 479.351837
[front_lower_right_part1]
57 26.433468 475.070984 -43.538742 0.000000 -0.000000 -0.000000 477.793671
58 26.433468 475.070984 -43.538742 0.000000 -0.000000 -0.000000 477.793671
59 26.433468 475.070984 -43.538742 0.000000 -0.000000 -0.000000 477.793671
60 26.433468 475.070984 -43.538742 0.000000 -0.000000 -0.000000 477.793671
[front_top_left_part]
57 -47.897224 494.788910 7.030945 -0.000000 0.000003 -0.000001 497.151520
58 -47.897224 494.788910 7.030945 -0.000000 0.000003 -0.000001 497.151520
59 -47.897224 494.788910 7.030945 -0.000000 0.000003 -0.000001 497.151520
60 -47.897224 494.788910 7.030945 -0.000000 0.000003 -0.000001 497.151520
[front_top_right_part1]
57 27.532139 494.788910 7.031097 0.000000 -0.000000 -0.000000 495.604218
58 27.532139 494.788910 7.031097 0.000000 -0.000000 -0.000000 495.604218
59 27.532139 494.788910 7.031097 0.000000 -0.000000 -0.000000 495.604218
60 27.532139 494.788910 7.031097 0.000000 -0.000000 -0.000000 495.604218
[scope_part1]
57 -10.754299 87.338936 156.453094 -4.905274 -1.032112 0.088587 179.502960
58 -10.754299 87.338936 156.453094 -4.905199 -0.992959 0.085206 179.502960
59 -10.754299 87.338936 156.453094 -4.905126 -0.953117 0.081797 179.502960
60 -10.754299 87.338936 156.453094 -4.905056 -0.912736 0.078364 179.502960
[scope_part2]
57 -10.754299 82.597351 156.859894 -4.905136 0.959135 -0.082253 177.603500
58 -10.754299 82.597351 156.859894 -4.905072 0.922835 -0.079152 177.603500
59 -10.754299 82.597351 156.859894 -4.905010 0.885764 -0.076019 177.603500
60 -10.754299 82.597351 156.859894 -4.904986 0.848041 -0.072775 177.603500
[front_lower_left_part2]
57 -55.193516 141.618484 32.268444 0.000000 -0.000000 3.398872 155.381378
58 -55.193516 141.618484 32.268444 0.000000 -0.000000 3.390214 155.381378
59 -55.193516 141.618484 32.268444 0.000000 -0.000000 3.365005 155.381378
60 -55.193516 141.618484 32.268444 0.000000 -0.000000 3.316921 155.381378
[front_lower_left_part3]
57 -10.943755 108.509369 -11.124877 33.974495 -14.501520 -15.833844 109.625778
58 -10.943775 108.509445 -11.125030 33.958580 -14.543027 -15.770226 109.625870
59 -10.943755 108.509521 -11.124877 33.940868 -14.588934 -15.699788 109.625931
60 -10.943775 108.509369 -11.124877 33.923096 -14.634818 -15.629319 109.625778
[front_lower_right_part2]
57 55.193707 141.618347 32.268291 0.000000 0.000000 -1.617128 155.381271
58 55.193707 141.618347 32.268291 0.000000 0.000000 -1.612954 155.381271
59 55.193707 141.618347 32.268291 0.000000 0.000000 -1.600897 155.381271
60 55.193707 141.618347 32.268291 0.000000 0.000000 -1.581579 155.381271
[front_lower_right_part3]
57 10.943870 108.509590 -11.124725 33.636757 15.349928 14.522560 109.625999
58 10.943909 108.509285 -11.124573 33.627769 15.371636 14.488701 109.625679
59 10.943909 108.509445 -11.124877 33.618420 15.394316 14.453279 109.625870
60 10.943909 108.509445 -11.124877 33.608658 15.417878 14.416603 109.625870
[front_top_left_part2]
57 -39.070095 137.495346 54.647060 0.000000 -0.000003 0.000001 153.028564
58 -39.174500 137.495117 54.652710 0.000000 -0.000003 0.000001 153.057068
59 -39.284595 137.494888 54.658810 0.000000 -0.000003 0.000001 153.087265
60 -39.399837 137.494659 54.665070 0.000000 -0.000003 0.000001 153.118896
[front_top_left_part3]
57 -28.216457 149.656982 49.959717 -25.918779 -3.353717 -65.400764 160.278992
58 -28.216438 149.657059 49.959717 -25.916271 -3.374675 -65.443947 160.279053
59 -28.216457 149.656982 49.959717 -25.913744 -3.395631 -65.487114 160.278992
60 -28.216457 149.657059 49.959564 -25.911106 -3.417011 -65.531349 160.279007
[front_top_right_part2]
57 38.829727 137.480011 55.044861 0.000000 0.000000 -0.000020 153.096176
58 38.941307 137.480240 55.038605 0.000000 0.000000 -0.000020 153.122467
59 39.058994 137.480545 55.032192 0.000000 0.000000 -0.000020 153.150406
60 39.182129 137.480759 55.025482 0.000000 0.000000 -0.000020 153.179642
[front_top_right_part3]
57 28.216553 149.657135 49.959717 -25.890671 3.579730 65.866920 160.279144
58 28.216515 149.657135 49.959717 -25.889105 3.591943 65.892082 160.279129
59 28.216515 149.657059 49.959564 -25.887482 3.604338 65.917770 160.279022
60 28.216553 149.657135 49.959564 -25.885872 3.616881 65.943642 160.279099
